<?xml version="1.0" encoding="UTF-8"?>
<svg version="1.1" xmlns="http://www.w3.org/2000/svg" width="850" height="722">
<path d="M0 0 C-1.09634766 0.87205078 -1.09634766 0.87205078 -2.21484375 1.76171875 C-3.88530198 3.10417677 -5.54724073 4.45749715 -7.19140625 5.83203125 C-13.99888063 11.51801068 -21.05464023 16.82754147 -28.16455078 22.12695312 C-36.19539243 28.12132274 -44.10230894 34.26621756 -51.99707031 40.43798828 C-55.89132326 43.47497394 -59.79995617 46.49162208 -63.75268555 49.45214844 C-65.90813719 51.09773753 -67.80456347 52.76047202 -69.78881836 54.63598633 C-77.60942141 61.67485534 -83.32354162 63.14469556 -93.73974609 62.72509766 C-94.55787781 62.67766418 -95.37600952 62.63023071 -96.21893311 62.58135986 C-100.54631953 62.33540144 -104.87805879 62.26946566 -109.2109375 62.17578125 C-110.06293732 62.15283997 -110.91493713 62.12989868 -111.79275513 62.10626221 C-153.66445958 61.09309368 -199.24436274 76.24265232 -229.94995117 105.109375 C-231.30408658 106.4019484 -232.6522626 107.7007569 -234 109 C-234.64324219 109.59167969 -235.28648437 110.18335938 -235.94921875 110.79296875 C-250.33222104 124.37132755 -260.00671685 142.7163561 -267 161 C-267.42796875 162.11890625 -267.8559375 163.2378125 -268.296875 164.390625 C-274.09118749 180.62900691 -277.41278927 197.8544329 -279 215 C-279.11085938 216.18722656 -279.22171875 217.37445313 -279.3359375 218.59765625 C-279.62004566 222.06454365 -279.8278946 225.52587246 -280 229 C-280.06574219 230.03640625 -280.13148438 231.0728125 -280.19921875 232.140625 C-281.12928095 258.69550448 -272.28194304 287.19128146 -259 310 C-258.61199219 310.67063477 -258.22398437 311.34126953 -257.82421875 312.03222656 C-252.5846217 320.97696723 -246.85671326 329.19836866 -240 337 C-238.90558594 338.27617188 -238.90558594 338.27617188 -237.7890625 339.578125 C-218.57576746 361.55543792 -193.33422922 375.60850194 -166 385 C-165.16227051 385.28891113 -164.32454102 385.57782227 -163.46142578 385.87548828 C-121.72817899 400.08133156 -76.81344468 398.55504847 -37 379 C-36.32018066 378.67161133 -35.64036133 378.34322266 -34.93994141 378.00488281 C-20.34746676 370.88610783 -6.77396543 362.04888396 5.01953125 350.83984375 C6.92476779 349.06989028 8.89253197 347.52021851 11 346 C9.3109974 340.67822645 7.42585464 335.50946793 5.24707031 330.36962891 C-20.2814578 269.69874403 -18.07164172 201.61507443 5.93359375 140.97265625 C8.87582651 133.75886037 12.31267771 126.85712567 16 120 C16.34111816 119.35256836 16.68223633 118.70513672 17.03369141 118.03808594 C25.03310562 102.90365625 34.81787287 88.95641298 46 76 C46.98613281 74.84757812 46.98613281 74.84757812 47.9921875 73.671875 C58.33267458 61.88762179 69.48404261 50.46919598 82 41 C82.55478027 40.57412598 83.10956055 40.14825195 83.68115234 39.70947266 C92.73572014 32.77787544 102.03508053 26.54383289 112 21 C112.84594727 20.52916992 113.69189453 20.05833984 114.56347656 19.57324219 C127.98469715 12.1803984 141.48661191 5.92031707 156 1 C156.79905762 0.72462402 157.59811523 0.44924805 158.42138672 0.16552734 C219.18073485 -20.4521365 287.55577793 -14.5454752 344.90795898 13.38061523 C359.09278516 20.43405601 372.38717132 28.41593285 385 38 C385.88510254 38.66080566 385.88510254 38.66080566 386.78808594 39.33496094 C405.95568403 53.75415246 423.22946718 71.38316837 437 91 C437.66515625 91.90363281 438.3303125 92.80726562 439.015625 93.73828125 C443.74623855 100.24820214 447.86819632 107.14361245 451.89892578 114.1015625 C452.91003611 115.84488709 453.93669924 117.57916691 454.96484375 119.3125 C472.36407527 150.05470048 482.9601628 187.49610996 483.23828125 222.90234375 C483.2480751 223.92954529 483.25786896 224.95674683 483.26795959 226.01507568 C483.58924343 268.41014733 483.58924343 268.41014733 479 288 C478.78569336 288.96180176 478.57138672 289.92360352 478.35058594 290.91455078 C468.80714991 333.08209091 448.81046763 372.55757247 419 404 C417.93206317 405.26626796 416.86927295 406.53690032 415.8125 407.8125 C377.50380979 451.56834663 318.04543453 478.12466183 261 484 C260.03707031 484.11085938 259.07414063 484.22171875 258.08203125 484.3359375 C194.51294861 490.55008825 129.66732387 470.68516372 80.13671875 430.6171875 C76.30950546 427.46011796 72.62211796 424.15467434 68.98828125 420.77734375 C66.92181037 418.84606455 66.92181037 418.84606455 64 417 C64 416.34 64 415.68 64 415 C63.37996094 415.52207031 62.75992187 416.04414063 62.12109375 416.58203125 C22.88305537 449.19472399 -22.4288541 471.00905049 -73 479 C-73.70479492 479.11714355 -74.40958984 479.23428711 -75.13574219 479.35498047 C-142.11495442 490.12349691 -212.91398426 466.28519585 -266.97607422 427.58544922 C-274.11973396 422.39763018 -280.72850369 416.69521272 -287.15625 410.65625 C-289.79041999 408.19576155 -292.47713459 405.8132524 -295.1875 403.4375 C-342.91085414 360.33497857 -363.70875465 294.31679465 -367.17285156 231.88476562 C-368.67315074 194.03688211 -359.81369361 156.21922948 -344 122 C-343.50113281 120.9174292 -343.50113281 120.9174292 -342.9921875 119.81298828 C-321.42992991 73.6097158 -284.72430972 36.99628651 -242 10 C-241.30052246 9.55672363 -240.60104492 9.11344727 -239.88037109 8.65673828 C-169.67050114 -35.37429361 -73.35915281 -37.59656582 0 0 Z M230.10021973 3.05267334 C227.44438807 3.90624559 224.77901223 4.727475 222.1130085 5.54861736 C218.90586866 6.54027728 215.70717291 7.55772961 212.5078125 8.57421875 C211.32454376 8.94214035 210.14127502 9.31006195 208.92214966 9.68913269 C200.77188248 12.35767575 196.18353992 15.17133216 192.125 22.9296875 C191.620896 23.87924316 191.11679199 24.82879883 190.59741211 25.80712891 C190.07026611 26.81952637 189.54312012 27.83192383 189 28.875 C187.85727539 31.02700197 186.71269167 33.17801762 185.56640625 35.328125 C184.98133301 36.42833984 184.39625977 37.52855469 183.79345703 38.66210938 C180.91280612 44.02342972 177.93332607 49.32739807 174.9375 54.625 C174.40189453 55.57745605 173.86628906 56.52991211 173.31445312 57.51123047 C172.31977338 59.26835057 171.3118682 61.018077 170.28833008 62.75854492 C168.88340653 65.13484829 168.88340653 65.13484829 167.4453125 68.27734375 C162.57868667 73.69593513 154.94201999 75.7159531 148.31054688 78.41210938 C141.38394069 81.01054538 141.38394069 81.01054538 136.7890625 86.37890625 C136.09528899 89.56270844 135.467089 92.7478474 134.87207031 95.95092773 C133.90020334 100.53344429 133.00925609 104.57717038 129.02587891 107.39794922 C124.4430014 109.69180052 119.638269 111.21201802 114.68652344 112.49780273 C112.98148333 112.85988311 112.98148333 112.85988311 112 114 C111.91273777 115.78071246 111.89300959 117.5648314 111.90234375 119.34765625 C111.90556641 120.42724609 111.90878906 121.50683594 111.91210938 122.61914062 C111.92048828 123.75544922 111.92886719 124.89175781 111.9375 126.0625 C111.94201172 127.20267578 111.94652344 128.34285156 111.95117188 129.51757812 C111.96300253 132.34510351 111.9794859 135.1725264 112 138 C110.84878662 138.45379028 110.84878662 138.45379028 109.67431641 138.91674805 C106.81560822 140.07468928 104.10914273 141.38517205 101.375 142.8125 C100.43398438 143.29332031 99.49296875 143.77414063 98.5234375 144.26953125 C94.08767851 147.31139074 92.63913096 151.57663344 91.1940918 156.60620117 C90.71295174 158.26029243 90.71295174 158.26029243 90.22209167 159.94779968 C89.88454361 161.13420547 89.54699554 162.32061127 89.19921875 163.54296875 C88.65046041 165.43549088 88.1016981 167.32801186 87.55272388 169.22047138 C86.78523075 171.87265562 86.02417651 174.52666973 85.26318359 177.1807251 C72.48974235 221.70765202 72.48974235 221.70765202 64.375 240.6875 C63.33299769 243.16549306 62.29312406 245.64421928 61.2578125 248.125 C60.9937561 248.7572197 60.72969971 249.38943939 60.4576416 250.04081726 C57.26869736 257.70932267 54.25153211 265.44413636 51.25 273.1875 C50.98370789 273.87065277 50.71741577 274.55380554 50.4430542 275.25765991 C49.69258236 277.18464086 48.9469411 279.11341041 48.203125 281.04296875 C47.77676758 282.14664795 47.35041016 283.25032715 46.91113281 284.38745117 C45.89023306 286.85359654 45.89023306 286.85359654 46 289 C44.7625 289.061875 44.7625 289.061875 43.5 289.125 C33.1034766 291.72413085 25.75537937 302.30590786 19 310 C20.65865371 316.06824526 22.33475113 320.66023361 27 325 C29.88170815 325.88215556 31.82281666 326.35527605 34.734375 325.4765625 C37.93559737 324.80320193 40.9290232 325.22159685 44.1875 325.4375 C48.19780205 325.57541916 51.24157264 325.45719283 54.7734375 323.328125 C56.27105155 321.92762586 57.72501267 320.47856125 59.125 318.98046875 C61.53857307 316.4311322 63.78804486 315.31772519 67 314 C66.67 314.99 66.34 315.98 66 317 C65.34900971 322.48587962 65.34900971 322.48587962 67.58203125 327.234375 C70.85128121 329.62161407 72.99145026 329.43564401 77 329.3125 C78.216875 329.28800781 79.43375 329.26351563 80.6875 329.23828125 C83.29795456 329.05050091 85.51423211 328.76437363 88 328 C88.26296875 328.73476563 88.5259375 329.46953125 88.796875 330.2265625 C91.57961751 336.64132609 96.80573554 341.81157618 101.640625 346.7734375 C102.27581055 347.43037598 102.91099609 348.08731445 103.56542969 348.76416016 C104.83897561 350.07145729 106.12588314 351.36589059 107.42675781 352.64599609 C111.8832627 357.2178601 111.8832627 357.2178601 112.46875 361.140625 C112 364 112 364 111.40576172 366.38305664 C110.96105978 369.25114332 111.24957392 370.9559399 112.0390625 373.73046875 C112.28696533 374.61114014 112.53486816 375.49181152 112.7902832 376.39916992 C113.06573975 377.31931885 113.34119629 378.23946777 113.625 379.1875 C113.90496826 380.13278564 114.18493652 381.07807129 114.47338867 382.05200195 C118.41761737 395.01962106 124.34793968 406.28378553 136.05078125 413.9765625 C145.99324967 419.19685654 155.65074465 420.19553113 166.6875 420.25 C167.71294922 420.270625 168.73839844 420.29125 169.79492188 420.3125 C180.65688783 420.36739307 190.2493 418.59095834 198.25 410.8125 C200.01724828 407.97227955 200.16820212 406.9297297 200.5 403.75 C201.58534467 397.66797422 206.37506291 394.96954869 211.0546875 391.5546875 C214 390 214 390 216.1328125 390.1328125 C218.11190889 391.05197442 220.07613873 391.96936004 222 393 C222.41507813 392.5153125 222.83015625 392.030625 223.2578125 391.53125 C227.97677594 386.3976496 232.89560375 383.03745841 238.98681641 379.79101562 C245.17511369 376.48458291 249.52197302 373.18315908 253 367 C253 365.68 253 364.36 253 363 C254.04220703 362.87044922 254.04220703 362.87044922 255.10546875 362.73828125 C278.83472648 359.46009482 300.60362266 353.39637734 318 336 C318.13568319 332.33655389 318.16461426 329.49384279 317 326 C317.99609375 324.08984375 317.99609375 324.08984375 319.4375 321.9375 C322.37548301 316.91264884 322.93044656 312.72806166 322 307 C320.67014431 303.4952235 320.67014431 303.4952235 319 301 C312.73979914 303.31128009 306.90876468 306.44186137 302 311 C301.4983962 313.52077166 301.77577517 315.3620321 302.12890625 317.890625 C302 320 302 320 300.46484375 321.796875 C295.34387616 325.44567731 290.12782842 327.01674753 283.9921875 328.1640625 C280.8367944 328.88944049 280.8367944 328.88944049 277.84765625 331.0078125 C273.07922594 333.87174639 268.00495061 333.91400305 262.5625 334.25 C261.56412109 334.32734375 260.56574219 334.4046875 259.53710938 334.484375 C256.69208952 334.69387022 253.84917586 334.85925508 251 335 C250.24750977 335.04237793 249.49501953 335.08475586 248.71972656 335.12841797 C244.14454579 335.27815513 240.790099 334.4773448 236.625 332.625 C235.60664062 332.18414062 234.58828125 331.74328125 233.5390625 331.2890625 C231 330 231 330 229 328 C228.88745117 325.65600586 228.88745117 325.65600586 229.04296875 322.71484375 C229.43098775 308.42956188 228.41479993 299.60429149 218.671875 288.93359375 C218.06021484 288.28890137 217.44855469 287.64420898 216.81835938 286.97998047 C213.78997769 283.68242737 211.17305723 280.08640624 208.5 276.5 C207.42383484 275.08834752 206.34570542 273.67819035 205.265625 272.26953125 C204.73001953 271.56908691 204.19441406 270.86864258 203.64257812 270.14697266 C201.40284046 267.21946774 199.16093488 264.29362737 196.91821289 261.3684082 C195.81819365 259.93031778 194.7209577 258.49009351 193.62670898 257.04760742 C191.17168183 253.81296628 188.69796731 250.60891968 186.11328125 247.4765625 C185.67918945 246.93749268 185.24509766 246.39842285 184.79785156 245.84301758 C183.65092703 244.42205515 182.48443519 243.01694734 181.31640625 241.61328125 C180 239 180 239 180.55859375 235.9921875 C181.9907439 233.01921457 183.55263685 230.47362125 185.5 227.8125 C186.1084375 226.97332031 186.716875 226.13414062 187.34375 225.26953125 C187.8903125 224.52058594 188.436875 223.77164063 189 223 C191.38758437 220.13240124 191.38758437 220.13240124 190.5625 216.6875 C191 213 191 213 192.3984375 211.52734375 C196.10175499 208.98042616 200.0179819 206.97816486 204.06640625 205.046875 C218.9828809 197.82793941 224.92123974 188.42294493 232.18554688 173.95117188 C235.3634028 167.7788932 238.90709594 163.11884927 243.87109375 158.2265625 C248.17408256 153.72618888 249.40330681 150.55022899 249.3125 144.3125 C249.03588631 134.42612191 247.43806725 127.61018926 242.8125 118.9375 C237.9083109 109.66521593 237.9083109 109.66521593 239.38598633 104.25366211 C240.06383664 101.7656954 240.57426612 99.27244087 241.0703125 96.7421875 C241.24578613 95.85128418 241.42125977 94.96038086 241.60205078 94.04248047 C241.79903564 93.03145264 241.79903564 93.03145264 242 92 C241.34366577 91.47998413 241.34366577 91.47998413 240.67407227 90.94946289 C209.26674354 65.98127634 209.26674354 65.98127634 205 48 C205 40.41617483 207.58612395 33.51342028 209.94140625 26.37890625 C211.09965529 23.27205396 211.09965529 23.27205396 211 21 C212.09094971 20.89276611 213.18189941 20.78553223 214.3059082 20.67504883 C219.69874609 19.99655521 224.86371358 18.60683218 230.10546875 17.19921875 C231.66881706 16.78274834 231.66881706 16.78274834 233.26374817 16.35786438 C235.45550084 15.77150877 237.64646446 15.18219661 239.83666992 14.59008789 C243.18404086 13.68843176 246.53608314 12.80585575 249.88867188 11.92382812 C252.02375059 11.35012225 254.15852724 10.77529077 256.29296875 10.19921875 C257.79152657 9.80835335 257.79152657 9.80835335 259.32035828 9.40959167 C267.43408048 7.18117532 271.95141818 3.63527896 277 -3 C277 -3.66 277 -4.32 277 -5 C260.33486667 -6.63874248 245.79164066 -2.04413228 230.10021973 3.05267334 Z M347.17578125 55.67578125 C346.40081299 56.25070313 345.62584473 56.825625 344.82739258 57.41796875 C343.13436018 58.69337224 341.44281715 59.97075494 339.75268555 61.25 C335.71926448 64.29014135 331.71244277 67.2424826 327.40625 69.88671875 C326.71233154 70.33168701 326.01841309 70.77665527 325.3034668 71.23510742 C324.01690785 72.05247859 322.70609048 72.83335372 321.37036133 73.56762695 C319.32090258 74.91029723 318.23572165 75.87077762 317 78 C316.35914965 82.69599573 316.72297156 87.28205101 317 92 C317.00944444 94.00393856 317.01873021 96.00792339 317.0115509 98.01187134 C317.01703165 100.7547484 317.10209655 103.49251101 317.1953125 106.23364258 C317.23199575 107.6280973 317.24670358 109.02329075 317.24023438 110.41821289 C317.20653359 119.33438355 317.20653359 119.33438355 321.60693359 126.82592773 C324.64680743 129.09685389 327.75456342 131.03980802 331 133 C334.46434683 135.86574253 337.73324418 138.91210038 341 142 C341.81082031 142.74636719 342.62164063 143.49273437 343.45703125 144.26171875 C368.22068689 167.8554379 381.93887968 201.29799462 383.19140625 235.234375 C383.90436786 268.21076589 374.60058467 299.73061373 353 325 C352.32453125 325.82113281 351.6490625 326.64226562 350.953125 327.48828125 C331.54529744 350.26060447 300.50773184 363.34212563 271.15234375 366.34765625 C268.89373589 366.77905278 268.89373589 366.77905278 267.94604492 368.63085938 C266.76733786 371.58264604 266.24754731 374.424749 265.7109375 377.55859375 C265.49179687 378.83154297 265.27265625 380.10449219 265.046875 381.41601562 C264.88155273 382.40661987 264.88155273 382.40661987 264.71289062 383.41723633 C264.37647231 385.42869698 264.02887083 387.43798604 263.6796875 389.44726562 C261.43553465 398.35667103 261.43553465 398.35667103 263.17407227 406.81762695 C263.71604248 407.36894287 264.2580127 407.92025879 264.81640625 408.48828125 C265.41283936 409.10872314 266.00927246 409.72916504 266.6237793 410.3684082 C267.26355713 411.0099585 267.90333496 411.65150879 268.5625 412.3125 C269.85249659 413.64492962 271.14156903 414.97825462 272.4296875 416.3125 C273.3592627 417.26576172 273.3592627 417.26576172 274.30761719 418.23828125 C276.88210623 420.91824561 279.28430794 423.7329591 281.66796875 426.58203125 C283.77014267 428.81982929 285.36286469 429.96485383 288.4519043 430.13525391 C289.87369995 430.05670166 289.87369995 430.05670166 291.32421875 429.9765625 C292.86625977 429.89921875 292.86625977 429.89921875 294.43945312 429.8203125 C296.04723633 429.72363281 296.04723633 429.72363281 297.6875 429.625 C298.77095703 429.56828125 299.85441406 429.5115625 300.97070312 429.453125 C303.64780007 429.31160446 306.32396576 429.16018849 309 429 C309.20157715 427.93040039 309.4031543 426.86080078 309.61083984 425.75878906 C310.36150154 421.78432518 311.12000213 417.81139077 311.88085938 413.83886719 C312.20884198 412.12052356 312.53470774 410.40177446 312.85839844 408.68261719 C313.32449037 406.20918452 313.79821809 403.73731811 314.2734375 401.265625 C314.41623138 400.49881409 314.55902527 399.73200317 314.70614624 398.94195557 C315.77814657 393.42517551 316.46636007 390.23357995 320.875 386.6875 C324 385 324 385 325.92382812 385.25341797 C328.20637137 386.07421021 330.22238464 387.08035318 332.34375 388.2578125 C333.17293945 388.71567139 334.00212891 389.17353027 334.85644531 389.64526367 C335.72881836 390.13357666 336.60119141 390.62188965 337.5 391.125 C338.39041992 391.61911377 339.28083984 392.11322754 340.19824219 392.62231445 C346.85142307 396.32596674 353.45746472 400.10373407 360 404 C367.45297102 398.48480145 374.72303947 392.743893 382 387 C380.50758791 378.4195181 378.00735467 370.30463322 375.30273438 362.0390625 C374.99271484 361.059375 374.68269531 360.0796875 374.36328125 359.0703125 C373.93462769 357.75184326 373.93462769 357.75184326 373.49731445 356.40673828 C372.96150336 353.81369665 373.07711959 352.45760611 374 350 C375.56640625 347.82421875 375.56640625 347.82421875 377.5625 345.6875 C378.52349609 344.61048828 378.52349609 344.61048828 379.50390625 343.51171875 C386.26643767 339.41610113 397.97979548 344.82816964 405.3125 346.625 C405.99997314 346.79483398 406.68744629 346.96466797 407.39575195 347.13964844 C409.40412904 347.63397439 411.41470555 348.1183522 413.42578125 348.6015625 C414.61598877 348.89369629 415.80619629 349.18583008 417.0324707 349.48681641 C420.04316596 350.2485346 420.04316596 350.2485346 423 349 C425.06361211 346.42409667 426.6423853 343.53019873 428.3125 340.6875 C428.79267578 339.91470703 429.27285156 339.14191406 429.76757812 338.34570312 C430.21166016 337.59611328 430.65574219 336.84652344 431.11328125 336.07421875 C431.52360596 335.38932373 431.93393066 334.70442871 432.35668945 333.9987793 C433.23827378 331.96561063 433.23827378 331.96561063 432.20605469 329.85717773 C430.91210036 327.86464523 429.52722866 326.14136518 427.9375 324.375 C427.31617188 323.68019531 426.69484375 322.98539062 426.0546875 322.26953125 C425.37664062 321.52058594 424.69859375 320.77164062 424 320 C423.28070312 319.19949219 422.56140625 318.39898437 421.8203125 317.57421875 C420.31148108 315.89570906 418.80105548 314.21863108 417.2890625 312.54296875 C413.84059238 308.71198914 410.41920871 304.85709102 407 301 C407.433125 300.22914063 407.86625 299.45828125 408.3125 298.6640625 C408.869375 297.66117188 409.42625 296.65828125 410 295.625 C410.556875 294.62726563 411.11375 293.62953125 411.6875 292.6015625 C413.15014268 290.18804491 413.15014268 290.18804491 413 288 C414.1446875 287.78472656 415.289375 287.56945312 416.46875 287.34765625 C423.2425737 285.84132986 429.75222839 283.48260465 436.29589844 281.2043457 C438.5207358 280.43028565 440.74840215 279.66482628 442.9765625 278.90039062 C444.39079696 278.41195595 445.80486583 277.92304148 447.21875 277.43359375 C447.88531616 277.20441757 448.55188232 276.97524139 449.23864746 276.73912048 C452.36612852 275.80248681 452.36612852 275.80248681 455 274 C456.13669432 267.52257779 456.52539922 260.42600306 455 254 C452.02693054 250.30651226 448.59485555 248.8388148 444.27050781 247.03125 C439.55347126 244.88880243 435.15458568 242.11370026 430.6875 239.5 C428.83897736 238.44486635 426.98884796 237.39253994 425.13671875 236.34375 C424.33967529 235.89193359 423.54263184 235.44011719 422.72143555 234.97460938 C422.15336182 234.65298828 421.58528809 234.33136719 421 234 C421.54852704 225.48837344 423.41700608 220.13611813 429.6875 214.0625 C430.574375 213.20140625 431.46125 212.3403125 432.375 211.453125 C434.61269746 209.36194344 436.87393841 207.3187917 439.1875 205.3125 C439.82042969 204.75691406 440.45335937 204.20132813 441.10546875 203.62890625 C442.39367705 202.52131272 443.71057992 201.44642441 445.05078125 200.40234375 C447.97463515 197.92380628 449.77485862 196.25141084 450.46875 192.39453125 C450.52961213 186.87890037 449.70084085 181.46071829 449 176 C448.34741211 175.86948242 447.69482422 175.73896484 447.02246094 175.60449219 C425.51123047 171.30224609 425.51123047 171.30224609 404 167 C403.05715121 158.35272963 406.03973937 153.40467122 410.5625 146.1875 C411.17158203 145.18396484 411.78066406 144.18042969 412.40820312 143.14648438 C414.93827623 138.97788774 417.47849448 134.81923115 420.09716797 130.70556641 C420.75475098 129.6438623 421.41233398 128.5821582 422.08984375 127.48828125 C422.99851196 126.05222534 422.99851196 126.05222534 423.92553711 124.5871582 C425.27975172 122.10709567 425.27975172 122.10709567 424.34448242 119.90014648 C423.90080322 119.27309814 423.45712402 118.6460498 423 118 C422.38777588 117.04818848 422.38777588 117.04818848 421.76318359 116.07714844 C421.31281738 115.4277832 420.86245117 114.77841797 420.3984375 114.109375 C419.90859375 113.40039062 419.41875 112.69140625 418.9140625 111.9609375 C418.40617188 111.23132813 417.89828125 110.50171875 417.375 109.75 C416.859375 109.00492188 416.34375 108.25984375 415.8125 107.4921875 C414.54395914 105.6598507 413.27306421 103.82919561 412 102 C407.72168404 102.64455416 404.24718088 104.13520868 400.34375 105.9765625 C399.06141705 106.57078562 397.778858 107.16452101 396.49609375 107.7578125 C394.4922041 108.69161622 392.49051785 109.62949312 390.49267578 110.57617188 C388.55260588 111.49262031 386.60528194 112.39186563 384.65625 113.2890625 C382.92084961 114.10431396 382.92084961 114.10431396 381.15039062 114.93603516 C377.02766336 116.32838214 374.82304643 115.87802429 370.98046875 114.02734375 C369.3203125 113.01822917 367.66015625 112.00911458 366 111 C366.51988911 99.39826404 367.28499593 87.84173337 368.33935547 76.27539062 C368.82302703 70.8224281 369.09741073 65.47448322 369 60 C366.37690901 58.82887054 363.75171858 57.66294036 361.125 56.5 C360.00544922 55.99919922 360.00544922 55.99919922 358.86328125 55.48828125 C358.14785156 55.17246094 357.43242188 54.85664062 356.6953125 54.53125 C356.03547363 54.23798828 355.37563477 53.94472656 354.69580078 53.64257812 C351.24748297 52.33593078 349.96810695 53.58569367 347.17578125 55.67578125 Z M267 98 C268.2322487 100.58716468 269.47918418 102.65716688 271.1875 105 C273 108 273 108 272.94140625 110.00390625 C271.55933354 112.93435918 269.63081115 113.547162 266.75 114.9375 C260.5852629 118.01573388 260.5852629 118.01573388 256 123 C255.8894842 129.26148659 257.7105009 135.55865537 259.3125 141.5625 C259.51294922 142.36107422 259.71339844 143.15964844 259.91992188 143.98242188 C261.17763104 148.76015917 262.80510287 152.98117438 265.16455078 157.32543945 C266.40392665 159.80962386 266.64216179 161.28865022 266 164 C264.39881603 166.05279996 262.73223664 168.05651499 261 170 C260.07649273 172.77052181 259.83670415 174.56688758 259.8125 177.4375 C259.79832031 178.19933594 259.78414062 178.96117187 259.76953125 179.74609375 C260.16243315 183.58854111 261.42645554 185.45275564 264.21484375 188.11328125 C273.5551302 195.65787418 283.13290755 201.8846875 294 207 C293.25 211.75 293.25 211.75 291 214 C290.45609392 216.44305774 290.45609392 216.44305774 291 219 C292.89968977 220.88688298 292.89968977 220.88688298 295.5234375 222.33203125 C296.461875 222.90244141 297.4003125 223.47285156 298.3671875 224.06054688 C299.35976563 224.63869141 300.35234375 225.21683594 301.375 225.8125 C302.85226562 226.7087207 302.85226562 226.7087207 304.359375 227.62304688 C308.88722359 230.72514417 308.88722359 230.72514417 314 232 C314.03758423 233.20329956 314.03758423 233.20329956 314.07592773 234.4309082 C314.19182043 238.05827074 314.31457751 241.68536917 314.4375 245.3125 C314.47681641 246.57513672 314.51613281 247.83777344 314.55664062 249.13867188 C314.59853516 250.34716797 314.64042969 251.55566406 314.68359375 252.80078125 C314.73858032 254.47394409 314.73858032 254.47394409 314.79467773 256.1809082 C314.88931209 259.07873571 314.88931209 259.07873571 316 262 C321.6050325 262.07427668 327.20977711 262.12866208 332.81518555 262.16479492 C334.72116081 262.17986128 336.62710152 262.20031824 338.53295898 262.22631836 C341.27596576 262.26279642 344.01851328 262.27974792 346.76171875 262.29296875 C347.61086349 262.30845261 348.46000824 262.32393646 349.33488464 262.33988953 C354.08037811 262.34123289 357.12010399 262.038001 361 259 C364.31127587 255.68872413 364.61804346 252.58347846 365 248 C365.15726563 247.35675781 365.31453125 246.71351563 365.4765625 246.05078125 C365.89054421 243.60058717 365.94672216 242.32172339 365 240 C362.37537587 238.10888867 362.37537587 238.10888867 359.1875 236.375 C355.26020904 234.04993325 353.36287207 232.92377166 351.67578125 228.62890625 C351.22962438 226.19180657 350.83772458 223.74407291 350.50390625 221.2890625 C349.84677152 216.99985754 348.43690363 214.53744076 346 211 C345.34 210.01 344.68 209.02 344 208 C344.61746094 207.91363281 345.23492188 207.82726562 345.87109375 207.73828125 C353.0186381 206.55246339 359.68158958 204.50720401 364.78515625 199.11328125 C366.70890652 195.76682177 365.73571748 193.52965597 364.85546875 189.91796875 C361.72588415 179.24308429 358.27850971 169.92641703 348.6875 163.5625 C345.83738032 162.08043777 343.50298301 161.82001207 340.3125 161.6875 C334.4956696 161.35054946 330.60305195 158.69651624 325.765625 155.6328125 C323.3970181 154.23439769 321.71091255 153.47869735 319.0625 152.9375 C314.72895834 151.61090561 313.53360118 149.72588409 311 146 C310 143.9375 310 143.9375 310 142 C310.474375 141.2575 310.94875 140.515 311.4375 139.75 C313.48678036 136.14326656 313.36069667 133.00928226 313 129 C312.89558594 127.27330078 312.89558594 127.27330078 312.7890625 125.51171875 C311.82232675 121.20926607 310.6384096 120.25039793 307.125 117.6875 C302.02827397 113.81027669 297.30314144 109.70880871 292.60546875 105.359375 C291.74566406 104.58078125 290.88585937 103.8021875 290 103 C289.08605469 102.08347656 288.17210937 101.16695313 287.23046875 100.22265625 C282.99672674 97.30971888 280.11674899 97.41253078 275.125 97.6875 C273.949375 97.72133789 273.949375 97.72133789 272.75 97.75585938 C270.8324974 97.81431982 268.9159894 97.90398717 267 98 Z " fill="#FEFEFE" transform="translate(367,26)"/>
<path d="M0 0 C7.26 0 14.52 0 22 0 C22.49371094 1.79308594 22.98742187 3.58617187 23.49609375 5.43359375 C24.14305434 7.76827762 24.79019925 10.10291042 25.4375 12.4375 C25.92573242 14.21350586 25.92573242 14.21350586 26.42382812 16.02539062 C26.73642578 17.15009766 27.04902344 18.27480469 27.37109375 19.43359375 C27.65911865 20.47572021 27.94714355 21.51784668 28.24389648 22.59155273 C28.77310192 24.92738407 28.77310192 24.92738407 30 26 C32.31 17.42 34.62 8.84 37 0 C44.59 0 52.18 0 60 0 C60.02464032 7.52970132 60.04283141 15.05937939 60.05493164 22.58911133 C60.0599737 25.15291757 60.06680714 27.71672091 60.07543945 30.28051758 C60.08751064 33.95655021 60.09322942 37.63254498 60.09765625 41.30859375 C60.10281754 42.46274277 60.10797882 43.61689178 60.11329651 44.80601501 C60.11337204 45.86703934 60.11344757 46.92806366 60.11352539 48.02124023 C60.115746 48.96055893 60.11796661 49.89987762 60.12025452 50.86766052 C60 53 60 53 59 54 C54.05 54 49.1 54 44 54 C43.505 36.675 43.505 36.675 43 19 C40.45224286 29.02069793 40.45224286 29.02069793 37.91455078 39.04394531 C37.43477783 40.91711426 37.43477783 40.91711426 36.9453125 42.828125 C36.45828857 44.7447998 36.45828857 44.7447998 35.96142578 46.70019531 C35 50 35 50 33 54 C29.7 54 26.4 54 23 54 C20.41572601 46.56524252 18.32898954 39.04365819 16.3125 31.4375 C15.219375 27.333125 14.12625 23.22875 13 19 C12.67 30.55 12.34 42.1 12 54 C8.04 54 4.08 54 0 54 C0 36.18 0 18.36 0 0 Z " fill="#FCFCFC" transform="translate(131,560)"/>
<path d="M0 0 C5.40375 -0.0825 10.8075 -0.165 16.375 -0.25 C18.05899902 -0.28641602 19.74299805 -0.32283203 21.47802734 -0.36035156 C29.54538048 -0.46219059 36.89957936 -0.40784807 44 4 C47.61983309 7.79641031 48.79534768 11.55746114 49.16796875 16.6875 C48.80405896 21.69760691 46.47941819 25.60760641 42.875 29 C41 30 41 30 39 30 C39.30292969 30.69150146 39.60585938 31.38300293 39.91796875 32.09545898 C41.28053095 35.20865159 42.64030157 38.32305563 44 41.4375 C44.47695313 42.52611328 44.95390625 43.61472656 45.4453125 44.73632812 C45.89648438 45.77080078 46.34765625 46.80527344 46.8125 47.87109375 C47.44091797 49.30859985 47.44091797 49.30859985 48.08203125 50.77514648 C49 53 49 53 49 54 C42.73 54 36.46 54 30 54 C27.36 47.4 24.72 40.8 22 34 C20.35 34 18.7 34 17 34 C17.00785522 34.85549438 17.00785522 34.85549438 17.01586914 35.72827148 C17.03658221 38.29800323 17.0496419 40.86771747 17.0625 43.4375 C17.07087891 44.33533203 17.07925781 45.23316406 17.08789062 46.15820312 C17.09272461 47.43920898 17.09272461 47.43920898 17.09765625 48.74609375 C17.10289307 49.53685303 17.10812988 50.3276123 17.11352539 51.14233398 C17 53 17 53 16 54 C10.72 54 5.44 54 0 54 C0 36.18 0 18.36 0 0 Z M17 11 C15.73973202 13.52053595 16.08125555 14.8542098 16.4375 17.625 C16.53933594 18.44226563 16.64117187 19.25953125 16.74609375 20.1015625 C16.87177734 21.04128906 16.87177734 21.04128906 17 22 C18.58246707 22.08153933 20.16616273 22.13943557 21.75 22.1875 C22.63171875 22.22230469 23.5134375 22.25710938 24.421875 22.29296875 C27.49021392 21.94429387 28.79575743 21.12840853 31 19 C31.66666667 16.5 31.66666667 16.5 31 14 C28.79575743 11.87159147 27.49021392 11.05570613 24.421875 10.70703125 C23.09929687 10.75923828 23.09929687 10.75923828 21.75 10.8125 C20.41195313 10.85310547 20.41195313 10.85310547 19.046875 10.89453125 C18.37140625 10.92933594 17.6959375 10.96414063 17 11 Z " fill="#FBFBFB" transform="translate(251,560)"/>
<path d="M0 0 C8.1675 -0.0928125 8.1675 -0.0928125 16.5 -0.1875 C18.20220703 -0.21481201 19.90441406 -0.24212402 21.65820312 -0.27026367 C23.03254491 -0.27903909 24.40689459 -0.28668052 25.78125 -0.29296875 C26.82104004 -0.3159906 26.82104004 -0.3159906 27.88183594 -0.33947754 C33.81512277 -0.34259813 39.2431717 0.88660601 44.05859375 4.578125 C47.40193892 8.63181262 49.09399704 11.54817159 49 17 C48.28771014 20.95791254 47.44931736 24.62425205 44.4609375 27.4609375 C42.8125 28.5625 42.8125 28.5625 40 30 C42.58427106 38.18352503 45.77679843 46.04943613 49 54 C42.73 54 36.46 54 30 54 C27.36 47.4 24.72 40.8 22 34 C20.35 34 18.7 34 17 34 C16.67 40.6 16.34 47.2 16 54 C10.72 54 5.44 54 0 54 C0 36.18 0 18.36 0 0 Z M16 12 C15.9020943 13.49738124 15.87025136 14.99942892 15.875 16.5 C15.87242187 17.3146875 15.86984375 18.129375 15.8671875 18.96875 C15.7754822 20.99530377 15.7754822 20.99530377 17 22 C19.22831353 22.23875423 19.22831353 22.23875423 21.8125 22.25 C22.68519531 22.27578125 23.55789063 22.3015625 24.45703125 22.328125 C27.48434927 21.93750332 28.81295077 21.09717049 31 19 C31.75 16.5 31.75 16.5 31 14 C27.33488363 10.57134275 23.64343823 10.70244825 18.890625 10.796875 C16.98974098 10.80108393 16.98974098 10.80108393 16 12 Z " fill="#FCFCFC" transform="translate(737,560)"/>
<path d="M0 0 C33.609375 0 33.609375 0 41.59765625 7.5 C46.88260912 13.10958142 49.06127733 19.21704814 49.4375 26.875 C49.15605543 34.41536918 46.88825084 41.43613368 41.6875 47 C30.1652016 57.31332062 14.64059994 54 0 54 C0 36.18 0 18.36 0 0 Z M16 13 C15.90006468 15.0605531 15.86919094 17.1245259 15.8671875 19.1875 C15.86589844 20.44304688 15.86460937 21.69859375 15.86328125 22.9921875 C15.86537598 23.64928711 15.8674707 24.30638672 15.86962891 24.98339844 C15.87497766 26.99161335 15.86968309 28.99960459 15.86328125 31.0078125 C15.86457031 32.26335938 15.86585938 33.51890625 15.8671875 34.8125 C15.86831543 35.97394531 15.86944336 37.13539063 15.87060547 38.33203125 C15.69662526 40.92063284 15.69662526 40.92063284 17 42 C21.62904383 42.42082217 24.36285133 41.94903946 28 39 C31.9991815 33.6217904 31.65114204 27.41462906 31 21 C29.54196614 16.84460351 28.0024039 14.00120195 24 12 C19.69333075 11.37736372 19.69333075 11.37736372 16 13 Z " fill="#FBFBFB" transform="translate(621,560)"/>
<path d="M0 0 C2.64 0 5.28 0 8 0 C8 19.8 8 39.6 8 60 C16.91 60 25.82 60 35 60 C35.33 60.99 35.66 61.98 36 63 C38.68653317 55.96716525 41.37280246 48.93422975 44.05874348 41.90116882 C45.30620608 38.63474744 46.55375641 35.36835962 47.80151367 32.10205078 C49.2390376 28.33896953 50.67616833 24.57573823 52.11328125 20.8125 C52.55714676 19.65073242 53.00101227 18.48896484 53.45832825 17.29199219 C55.65665974 11.53451376 57.84417659 5.77353566 60 0 C62.97 0 65.94 0 69 0 C71.43555786 6.22141709 73.87084727 12.44293918 76.3059082 18.66455078 C77.13103315 20.77265124 77.95622628 22.88072501 78.78149414 24.98876953 C79.37788696 26.51219971 79.37788696 26.51219971 79.98632812 28.06640625 C80.58059097 29.58430756 80.58059097 29.58430756 81.18685913 31.13287354 C81.98023789 33.16071073 82.77290395 35.18882691 83.56484985 37.21722412 C85.41507896 41.9560383 87.27201623 46.69179045 89.15185547 51.41894531 C89.4807225 52.25080353 89.80958954 53.08266174 90.14842224 53.93972778 C90.75862658 55.48275938 91.37269895 57.02426915 91.99134827 58.56393433 C93.15979487 61.52948094 94 63.78146661 94 67 C91.36 67 88.72 67 86 67 C84.82905995 64.2100561 83.66309073 61.41821403 82.5 58.625 C82.16613281 57.8309375 81.83226563 57.036875 81.48828125 56.21875 C81.17246094 55.45820312 80.85664062 54.69765625 80.53125 53.9140625 C80.23798828 53.2123291 79.94472656 52.5105957 79.64257812 51.78759766 C79 50 79 50 79 48 C69.43 48 59.86 48 50 48 C49.01 51.63 48.02 55.26 47 59 C46.01 61.64 45.02 64.28 44 67 C29.48 67 14.96 67 0 67 C0 44.89 0 22.78 0 0 Z M64 9 C62.42931142 13.23432728 60.86284151 17.47018165 59.30029297 21.70751953 C58.76792764 23.14935584 58.23440373 24.59076492 57.69970703 26.03173828 C56.93218234 28.1007798 56.1688116 30.17131251 55.40625 32.2421875 C55.16563843 32.88807831 54.92502686 33.53396912 54.67712402 34.19943237 C53.41297847 37.51246197 53.41297847 37.51246197 53 41 C60.59 41 68.18 41 76 41 C73.63308852 33.03329468 73.63308852 33.03329468 70.95703125 25.2109375 C70.60576172 24.25058594 70.25449219 23.29023437 69.89257812 22.30078125 C69.35793945 20.85251953 69.35793945 20.85251953 68.8125 19.375 C68.44447266 18.37082031 68.07644531 17.36664062 67.69726562 16.33203125 C66.80077369 13.88705325 65.90165072 11.44307919 65 9 C64.67 9 64.34 9 64 9 Z " fill="#F8F8F8" transform="translate(27,629)"/>
<path d="M0 0 C5.17218776 5.24239845 6.88855595 12.08905683 7.0390625 19.25 C6.9497066 27.90858644 5.42843291 35.26152381 -0.5859375 41.75 C-6.97151934 47.39307233 -13.95188277 48.72591446 -22.2734375 48.75 C-28.86333263 48.20381049 -34.33882857 45.04545959 -39.2734375 40.75 C-46.04481479 32.2415473 -45.97234955 23.1844981 -45.2734375 12.75 C-44.2184699 6.67946608 -40.84177604 1.78570714 -36.2734375 -2.25 C-24.42170777 -9.9187663 -10.90767157 -8.69137177 0 0 Z M-25.2734375 7.75 C-27.64048916 12.12372175 -27.64001088 16.33798137 -27.6484375 21.1875 C-27.67292969 21.92548828 -27.69742188 22.66347656 -27.72265625 23.42382812 C-27.75049053 28.64275645 -26.74035836 31.6278629 -23.2734375 35.75 C-20.88735139 36.99401278 -20.88735139 36.99401278 -18.2734375 36.75 C-15.4875364 35.81196218 -15.4875364 35.81196218 -13.2734375 33.75 C-11.3411183 29.1942891 -10.97594434 25.17224286 -10.9609375 20.25 C-10.94417969 18.9815625 -10.92742187 17.713125 -10.91015625 16.40625 C-11.30140776 12.46849284 -12.17839537 10.08636686 -14.2734375 6.75 C-18.84842103 3.70001098 -21.05308131 4.61178642 -25.2734375 7.75 Z " fill="#FBFAFB" transform="translate(115.2734375,566.25)"/>
<path d="M0 0 C5.1014834 4.09432358 8.72420924 9.18317056 9.9453125 15.7109375 C10.6543963 25.59161345 10.6245626 34.60706422 4.3671875 42.76953125 C-1.40592206 49.02373327 -7.83705535 51.22181357 -16.21484375 51.7734375 C-23.52830599 51.61248097 -30.9077935 49.04118141 -36.0546875 43.7109375 C-42.15496443 34.85365229 -43.12542409 26.28316186 -42.0546875 15.7109375 C-39.88137146 8.64565545 -36.46852553 2.8282179 -30.1953125 -1.2421875 C-20.72839896 -5.87199193 -8.99998106 -5.64637595 0 0 Z M-22.0546875 10.7109375 C-24.29812763 14.90384974 -24.38878839 18.99560526 -24.3671875 23.6484375 C-24.38330078 24.33873047 -24.39941406 25.02902344 -24.41601562 25.74023438 C-24.42050489 30.47640688 -23.59585016 33.71768189 -21.0546875 37.7109375 C-18.23870563 40.01354509 -18.23870563 40.01354509 -15.0546875 39.5859375 C-11.60681623 38.58030838 -10.77646712 37.79201682 -9.0546875 34.7109375 C-7.78604586 30.90501257 -7.83148678 27.30223109 -7.8046875 23.3359375 C-7.7840625 22.58054687 -7.7634375 21.82515625 -7.7421875 21.046875 C-7.70993393 16.4346142 -8.0593278 13.44813863 -11.0546875 9.7109375 C-15.62967103 6.66094848 -17.83433131 7.57272392 -22.0546875 10.7109375 Z " fill="#FBFBFB" transform="translate(718.0546875,563.2890625)"/>
<path d="M0 0 C13.86 0 27.72 0 42 0 C42 3.96 42 7.92 42 12 C33.75 12 25.5 12 17 12 C17 14.64 17 17.28 17 20 C23.6 20 30.2 20 37 20 C37 23.96 37 27.92 37 32 C30.4 32 23.8 32 17 32 C17 34.97 17 37.94 17 41 C25.25 41 33.5 41 42 41 C42 45.29 42 49.58 42 54 C28.14 54 14.28 54 0 54 C0 36.18 0 18.36 0 0 Z " fill="#FAFAFA" transform="translate(201,560)"/>
<path d="M0 0 C14.52 0 29.04 0 44 0 C44 11.22909091 44 11.22909091 40.375 15.5 C39.56933594 16.48484375 38.76367188 17.4696875 37.93359375 18.484375 C37.47581543 19.02771484 37.01803711 19.57105469 36.54638672 20.13085938 C34.13584547 23.04451643 31.84033742 26.04558215 29.53149414 29.04003906 C26.70073173 32.70349514 23.84810062 36.35000697 21 40 C28.59 40.33 36.18 40.66 44 41 C44 45.29 44 49.58 44 54 C29.15 54 14.3 54 -1 54 C-2.61066565 50.77866869 -2.49352246 47.49142625 -2 44 C-0.234375 40.90234375 -0.234375 40.90234375 2.25 37.9375 C2.69021484 37.39875244 3.13042969 36.86000488 3.58398438 36.30493164 C4.534503 35.14346283 5.49315145 33.98860927 6.45898438 32.83984375 C8.64179374 30.23375197 10.77078649 27.58581747 12.89746094 24.93383789 C13.94706178 23.62631411 15.00221315 22.32322212 16.06347656 21.02514648 C16.5478418 20.42774658 17.03220703 19.83034668 17.53125 19.21484375 C17.95986328 18.69011475 18.38847656 18.16538574 18.83007812 17.62475586 C20.28630856 15.69359608 20.28630856 15.69359608 22 12 C14.74 12 7.48 12 0 12 C0 8.04 0 4.08 0 0 Z " fill="#FAFAFA" transform="translate(515,560)"/>
<path d="M0 0 C5.94 0 11.88 0 18 0 C21.3772465 9.00599066 21.3772465 9.00599066 22.62573242 12.80786133 C22.90579636 13.65846634 23.18586029 14.50907135 23.47441101 15.38545227 C23.76516006 16.27532333 24.05590912 17.1651944 24.35546875 18.08203125 C24.66196854 19.01802658 24.96846832 19.95402191 25.28425598 20.91838074 C25.92638703 22.88204047 26.56754211 24.84601961 27.20776367 26.81030273 C28.19069162 29.82228005 29.18022128 32.83203923 30.16992188 35.84179688 C30.79467684 37.75507581 31.41903977 39.6684828 32.04296875 41.58203125 C32.3397905 42.48202347 32.63661224 43.38201569 32.94242859 44.3092804 C33.21303604 45.1441246 33.48364349 45.97896881 33.76245117 46.83911133 C34.00211105 47.57221024 34.24177094 48.30530914 34.48869324 49.06062317 C35 51 35 51 35 54 C29.39 54 23.78 54 18 54 C17.01 50.7 16.02 47.4 15 44 C10.05 43.67 5.1 43.34 0 43 C-0.309375 44.44375 -0.61875 45.8875 -0.9375 47.375 C-1.45483647 49.78923686 -1.89485234 51.78970467 -3 54 C-7.62 54 -12.24 54 -17 54 C-11.43169842 35.96746779 -5.78805832 17.96348345 0 0 Z M7 17 C6.3299166 19.12392506 5.66403203 21.24917524 5 23.375 C4.62875 24.55835938 4.2575 25.74171875 3.875 26.9609375 C2.90777394 29.79323439 2.90777394 29.79323439 3 32 C5.97 32 8.94 32 12 32 C10.64774477 24.31363974 10.64774477 24.31363974 8 17 C7.67 17 7.34 17 7 17 Z " fill="#FBFBFB" transform="translate(579,560)"/>
<path d="M0 0 C5.94 0 11.88 0 18 0 C19.61891177 4.83349733 21.23679373 9.66731775 22.85229492 14.50195312 C23.39958371 16.13886014 23.94741543 17.77558576 24.49584961 19.41210938 C27.35447057 27.94342912 30.18722044 36.48176876 32.89453125 45.0625 C33.10865158 45.73547119 33.32277191 46.40844238 33.54338074 47.10180664 C35 51.76177206 35 51.76177206 35 54 C29.39 54 23.78 54 18 54 C15 45.25 15 45.25 15 43 C10.05 43.33 5.1 43.66 0 44 C-0.99 47.3 -1.98 50.6 -3 54 C-7.62 54 -12.24 54 -17 54 C-14.44132474 44.14265754 -11.36359725 34.46368676 -8.27441406 24.76293945 C-7.36747371 21.91385675 -6.46476071 19.06345834 -5.5625 16.21289062 C-4.98722681 14.40096302 -4.41171479 12.58911123 -3.8359375 10.77734375 C-3.56615082 9.92534897 -3.29636414 9.07335419 -3.0184021 8.19554138 C-2.76789093 7.41034622 -2.51737976 6.62515106 -2.25927734 5.81616211 C-2.03960297 5.12542099 -1.81992859 4.43467987 -1.59359741 3.7230072 C-1 2 -1 2 0 0 Z M7 17 C4.94637945 22.08940744 3.56820748 26.54520815 3 32 C5.97 32 8.94 32 12 32 C11.54901762 30.06077578 11.08894441 28.12366406 10.625 26.1875 C10.24214844 24.56908203 10.24214844 24.56908203 9.8515625 22.91796875 C9.11267119 19.84466657 9.11267119 19.84466657 7 17 Z " fill="#FBFBFB" transform="translate(402,560)"/>
<path d="M0 0 C5.94 0 11.88 0 18 0 C21.82416352 9.03032672 24.83157942 18.30394499 27.85595703 27.62451172 C28.75528401 30.39125606 29.66450955 33.15462319 30.57421875 35.91796875 C31.14903963 37.68209558 31.72327946 39.44641188 32.296875 41.2109375 C32.70459137 42.44534073 32.70459137 42.44534073 33.12054443 43.7046814 C33.49158295 44.85705795 33.49158295 44.85705795 33.87011719 46.03271484 C34.08899597 46.70426605 34.30787476 47.37581726 34.53338623 48.06771851 C35 50 35 50 35 54 C29.72 54 24.44 54 19 54 C17.68 50.7 16.36 47.4 15 44 C10.05 43.67 5.1 43.34 0 43 C-0.309375 44.629375 -0.61875 46.25875 -0.9375 47.9375 C-1.875 52.875 -1.875 52.875 -3 54 C-5.18639453 54.07258946 -7.37500389 54.08373783 -9.5625 54.0625 C-11.35880859 54.04896484 -11.35880859 54.04896484 -13.19140625 54.03515625 C-14.11824219 54.02355469 -15.04507813 54.01195312 -16 54 C-14.74382646 46.94142758 -12.95607571 40.2129456 -10.7421875 33.3984375 C-10.43427277 32.435961 -10.12635803 31.4734845 -9.80911255 30.48184204 C-8.83615621 27.44456913 -7.85571794 24.40977449 -6.875 21.375 C-6.20913675 19.30094128 -5.54376749 17.22672389 -4.87890625 15.15234375 C-3.25830513 10.09971163 -1.63099501 5.04928607 0 0 Z M7 17 C5.68 21.62 4.36 26.24 3 31 C3.98267859 32.20561184 3.98267859 32.20561184 5.84765625 32.09765625 C7.8984375 32.06510417 9.94921875 32.03255208 12 32 C11.35812082 26.86496656 10.31727753 22.0056546 9 17 C8.34 17 7.68 17 7 17 Z " fill="#FBFBFB" transform="translate(807,560)"/>
<path d="M0 0 C4.61592373 4.83061785 6.519727 9.90890826 7.91015625 16.37109375 C6.91015625 17.37109375 6.91015625 17.37109375 3.53125 17.46875 C2.13668548 17.46207744 0.74213882 17.45011907 -0.65234375 17.43359375 C-1.7187207 17.42682617 -1.7187207 17.42682617 -2.80664062 17.41992188 C-4.56774388 17.40810239 -6.32880411 17.39016638 -8.08984375 17.37109375 C-8.23679688 16.80519531 -8.38375 16.23929688 -8.53515625 15.65625 C-9.22383187 13.40420156 -9.9320024 11.42421763 -11.08984375 9.37109375 C-13.96826594 7.87728268 -13.96826594 7.87728268 -17.08984375 8.37109375 C-19.43924064 10.21251294 -20.75983845 11.71108315 -22.08984375 14.37109375 C-22.35326703 17.48986577 -22.32133089 20.61742007 -22.33984375 23.74609375 C-22.36046875 24.60976563 -22.38109375 25.4734375 -22.40234375 26.36328125 C-22.4247019 29.98530103 -22.42970346 32.65228503 -20.8671875 35.95703125 C-18.56739788 37.78675398 -17.30762484 37.78951584 -14.40234375 37.62109375 C-13.18998047 37.56695313 -13.18998047 37.56695313 -11.953125 37.51171875 C-11.33824219 37.4653125 -10.72335938 37.41890625 -10.08984375 37.37109375 C-9.80109375 36.23671875 -9.51234375 35.10234375 -9.21484375 33.93359375 C-8.84359375 32.75796875 -8.47234375 31.58234375 -8.08984375 30.37109375 C-5.14597752 28.89916063 -2.71594339 29.52173202 0.53515625 29.80859375 C1.72367188 29.91042969 2.9121875 30.01226563 4.13671875 30.1171875 C5.05195312 30.20097656 5.9671875 30.28476562 6.91015625 30.37109375 C7.21775644 36.54067474 5.59446573 39.59172562 1.91015625 44.37109375 C-2.20501943 48.72142232 -7.29162804 50.37734856 -13.08984375 51.37109375 C-19.34096307 51.51508972 -24.74885878 50.80458409 -30.08984375 47.37109375 C-30.93546875 46.85546875 -31.78109375 46.33984375 -32.65234375 45.80859375 C-38.36166054 40.09927696 -40.78466485 32.71989304 -41.33984375 24.80859375 C-41.18343123 16.53437149 -39.19817195 8.41286828 -33.83203125 1.9921875 C-25.02914945 -6.19883481 -9.62963874 -7.50571842 0 0 Z " fill="#FAFAFA" transform="translate(57.08984375,563.62890625)"/>
<path d="M0 0 C4.02116684 2.54382511 7.10251915 5.60583381 9 10 C9.51805072 13.01180467 9.77198307 15.94457308 10 19 C5.05 19 0.1 19 -5 19 C-5.433125 17.88625 -5.86625 16.7725 -6.3125 15.625 C-7.69911119 11.82487666 -7.69911119 11.82487666 -11 10 C-14.11629568 10.15581478 -15.52742947 10.52742947 -17.75 12.75 C-20.94911473 18.50840651 -21.14797564 26.97152108 -19.36328125 33.234375 C-18.05482408 36.35127369 -18.05482408 36.35127369 -16 39 C-12.58399407 39.41692853 -12.58399407 39.41692853 -9 39 C-6.51758295 36.60318354 -5.56893106 34.13786212 -4 31 C2.93 31.495 2.93 31.495 10 32 C9.75337146 38.90559918 7.96033515 43.11547784 3 48 C-2.59282927 52.23736191 -9.10655917 53.23042142 -16 53 C-22.92013789 51.95088289 -28.45132264 49.39550559 -33 44 C-38.21680642 35.88850221 -39.30459816 26.69565819 -37.46875 17.2734375 C-35.45434546 10.0259603 -32.48218796 4.17741002 -26 0 C-16.99616477 -4.01895327 -8.98651568 -4.17706562 0 0 Z " fill="#FAFAFA" transform="translate(344,562)"/>
<path d="M0 0 C10 0 10 0 12.671875 2.5078125 C13.40086635 3.69195745 14.0913566 4.90033003 14.75 6.125 C15.58031008 7.50806418 16.41106657 8.89086043 17.2421875 10.2734375 C17.68014648 11.03108398 18.11810547 11.78873047 18.56933594 12.56933594 C20.65146336 16.10682068 22.88124824 19.54438896 25.10253906 22.99560547 C32.14850008 33.94499007 39.04767694 44.99215516 46 56 C46 37.52 46 19.04 46 0 C48.64 0 51.28 0 54 0 C54 22.11 54 44.22 54 67 C44 67 44 67 41.3984375 64.59765625 C40.68782623 63.44070078 40.01582204 62.25952191 39.375 61.0625 C38.55053745 59.68686518 37.72492905 58.31191674 36.8984375 56.9375 C36.44823242 56.16148437 35.99802734 55.38546875 35.53417969 54.5859375 C32.50735951 49.48407891 29.22153144 44.54270537 26 39.5625 C19.92432936 30.0880934 13.96564125 20.545026 8 11 C7.67 29.48 7.34 47.96 7 67 C4.69 67 2.38 67 0 67 C0 44.89 0 22.78 0 0 Z " fill="#FAFAFA" transform="translate(471,629)"/>
<path d="M0 0 C7.11133803 5.71998928 11.39285385 13.32861411 12.875 22.3125 C13.73576002 33.48826938 12.75001096 45.75114029 5.41796875 54.8203125 C-1.7539736 61.75621624 -9.12307613 64.36034502 -19 64.625 C-29.51246812 64.40274909 -35.34246558 62.06994813 -42.95703125 54.6796875 C-49.74651748 47.26630253 -50.83105496 38.09285302 -51.125 28.3125 C-50.67733932 18.46396493 -47.69106218 9.33937431 -40.4375 2.4375 C-28.23849162 -7.15391366 -13.36278982 -7.2159065 0 0 Z M-36.4375 9.625 C-42.54036826 17.50234354 -43.73739316 26.01945424 -42.91015625 35.87109375 C-41.41762775 44.07289325 -37.09140056 49.93768325 -30.7734375 55.18359375 C-25.51206994 58.78675779 -18.18047153 57.78295839 -12.125 57.3125 C-5.940493 55.70083883 -1.4468635 51.69371191 1.875 46.3125 C6.27570778 36.88003956 6.37105615 25.37536844 2.98046875 15.6015625 C0.38713758 10.23162588 -3.26269468 6.5043754 -8.25 3.3125 C-18.5127694 -0.23197792 -29.12746631 1.70876839 -36.4375 9.625 Z " fill="#F8F8F8" transform="translate(199.125,632.6875)"/>
<path d="M0 0 C36.61575179 0 36.61575179 0 45.7265625 8.63671875 C52.61675496 16.18877699 54.41364979 24.63867272 54.265625 34.6796875 C53.4901585 44.37301872 50.41178825 51.94422637 43.578125 58.90234375 C30.52700221 69.52121184 16.85253298 67 0 67 C0 44.89 0 22.78 0 0 Z M7 7 C7 24.49 7 41.98 7 60 C25.11760595 60.86035177 25.11760595 60.86035177 39.49609375 52.80859375 C45.09117164 46.07996761 46.59541769 37.51905317 46 29 C45.05127631 21.91459519 42.96053001 16.96053001 37.8125 11.8125 C27.59855227 5.23017813 19.40140543 7 7 7 Z " fill="#FAFAFA" transform="translate(360,629)"/>
<path d="M0 0 C2.05078125 0.03255208 4.1015625 0.06510417 6.15234375 0.09765625 C10.32752393 9.90581691 14.21941543 19.81998144 18.09082031 29.75097656 C19.14790144 32.46126644 20.20859183 35.17012475 21.26953125 37.87890625 C25.05493655 47.56622329 28.73721363 57.27300008 32.15234375 67.09765625 C29.18234375 67.09765625 26.21234375 67.09765625 23.15234375 67.09765625 C20.84234375 61.15765625 18.53234375 55.21765625 16.15234375 49.09765625 C6.58234375 48.76765625 -2.98765625 48.43765625 -12.84765625 48.09765625 C-13.50765625 51.06765625 -14.16765625 54.03765625 -14.84765625 57.09765625 C-15.50176039 58.97164075 -16.20011548 60.83180976 -16.97265625 62.66015625 C-17.50246094 63.93052734 -17.50246094 63.93052734 -18.04296875 65.2265625 C-18.44128906 66.15275391 -18.44128906 66.15275391 -18.84765625 67.09765625 C-21.81765625 67.09765625 -24.78765625 67.09765625 -27.84765625 67.09765625 C-27.58774902 66.41292236 -27.3278418 65.72818848 -27.06005859 65.02270508 C-26.02153706 62.28640116 -24.98325173 59.55000771 -23.94500732 56.81359863 C-23.21832497 54.89874304 -22.49125428 52.98403521 -21.76416016 51.06933594 C-19.16847667 44.23146032 -16.57956213 37.39112247 -14.00448608 30.54545593 C-12.72622026 27.14752572 -11.44603916 23.75031828 -10.16583252 20.3531189 C-9.53623662 18.6806542 -8.9076175 17.00782147 -8.27996826 15.33462524 C-7.39610252 12.97867271 -6.5089435 10.62398472 -5.62109375 8.26953125 C-5.35490234 7.55731918 -5.08871094 6.84510712 -4.81445312 6.11131287 C-2.55437647 0.13500933 -2.55437647 0.13500933 0 0 Z M1.15234375 9.09765625 C-0.30656031 13.30579195 -1.76467867 17.51419948 -3.22265625 21.72265625 C-3.63515625 22.91246094 -4.04765625 24.10226562 -4.47265625 25.328125 C-4.87226562 26.48183594 -5.271875 27.63554688 -5.68359375 28.82421875 C-6.0501709 29.88205566 -6.41674805 30.93989258 -6.79443359 32.02978516 C-7.83003742 35.04633538 -8.83909041 38.07195873 -9.84765625 41.09765625 C-1.92765625 41.09765625 5.99234375 41.09765625 14.15234375 41.09765625 C13.44207031 39.20660156 12.73179687 37.31554687 12 35.3671875 C11.31133209 33.5237835 10.6226915 31.68036918 9.93481445 29.83666992 C9.45798859 28.56076863 8.97981609 27.28536971 8.50024414 26.01049805 C7.80907562 24.17240606 7.12323113 22.33231491 6.4375 20.4921875 C6.0237915 19.38721924 5.61008301 18.28225098 5.18383789 17.14379883 C4.27381877 14.45638852 3.62722166 11.89012013 3.15234375 9.09765625 C2.49234375 9.09765625 1.83234375 9.09765625 1.15234375 9.09765625 Z " fill="#F8F8F8" transform="translate(808.84765625,628.90234375)"/>
<path d="M0 0 C2.05078125 0.03255208 4.1015625 0.06510417 6.15234375 0.09765625 C9.45972828 7.94794097 12.6522645 15.83304934 15.7265625 23.77734375 C16.34142265 25.36193893 16.34142265 25.36193893 16.96870422 26.97854614 C17.82565841 29.18821093 18.68186798 31.39816464 19.53735352 33.60839844 C20.84496515 36.98588453 22.15572722 40.3621362 23.46679688 43.73828125 C24.30357303 45.8970627 25.14016802 48.05591439 25.9765625 50.21484375 C26.36615646 51.21804657 26.75575043 52.22124939 27.15715027 53.25485229 C28.92925988 57.83877581 30.65992695 62.41283814 32.15234375 67.09765625 C29.18234375 67.09765625 26.21234375 67.09765625 23.15234375 67.09765625 C20.84234375 61.15765625 18.53234375 55.21765625 16.15234375 49.09765625 C6.58234375 48.76765625 -2.98765625 48.43765625 -12.84765625 48.09765625 C-13.17765625 50.07765625 -13.50765625 52.05765625 -13.84765625 54.09765625 C-14.65019307 56.4079098 -15.50585376 58.70030641 -16.41015625 60.97265625 C-16.86519531 62.12507812 -17.32023438 63.2775 -17.7890625 64.46484375 C-18.13839844 65.33367187 -18.48773437 66.2025 -18.84765625 67.09765625 C-21.81765625 67.09765625 -24.78765625 67.09765625 -27.84765625 67.09765625 C-22.28918655 51.89519173 -16.60266849 36.74414093 -10.80496216 21.63137817 C-10.12394448 19.85590638 -9.4438326 18.08008688 -8.76461792 16.30392456 C-7.80425543 13.79396143 -6.84022521 11.28544026 -5.875 8.77734375 C-5.58375244 8.01501938 -5.29250488 7.25269501 -4.99243164 6.4672699 C-2.54602201 0.13456776 -2.54602201 0.13456776 0 0 Z M1.15234375 8.09765625 C0.8123938 9.1175061 0.8123938 9.1175061 0.46557617 10.15795898 C-2.97216797 20.47119141 -6.40991211 30.78442383 -9.84765625 41.09765625 C-2.25765625 41.09765625 5.33234375 41.09765625 13.15234375 41.09765625 C12.45079152 36.88834289 11.87074115 33.94937185 10.375 30.12890625 C10.02630859 29.22785156 9.67761719 28.32679688 9.31835938 27.3984375 C8.95419922 26.47417969 8.59003906 25.54992187 8.21484375 24.59765625 C7.4962843 22.75433916 6.77880695 20.91059982 6.0625 19.06640625 C5.56194092 17.77863281 5.56194092 17.77863281 5.05126953 16.46484375 C4.00187489 13.70141886 3.0489538 10.91423233 2.15234375 8.09765625 C1.82234375 8.09765625 1.49234375 8.09765625 1.15234375 8.09765625 Z " fill="#F8F8F8" transform="translate(607.84765625,628.90234375)"/>
<path d="M0 0 C5.28 0 10.56 0 16 0 C16 13.53 16 27.06 16 41 C23.26 41 30.52 41 38 41 C38 45.29 38 49.58 38 54 C25.46 54 12.92 54 0 54 C-0.98111517 51.05665448 -1.12661737 49.15224644 -1.12939453 46.08544922 C-1.13412277 44.58907425 -1.13412277 44.58907425 -1.13894653 43.06246948 C-1.1369223 41.98740143 -1.13489807 40.91233337 -1.1328125 39.8046875 C-1.13376923 38.70150177 -1.13472595 37.59831604 -1.13571167 36.46170044 C-1.13639234 34.12990258 -1.13454591 31.79810282 -1.13037109 29.46630859 C-1.12501113 25.88244411 -1.13032515 22.29870438 -1.13671875 18.71484375 C-1.13605815 16.45312472 -1.13477736 14.19140577 -1.1328125 11.9296875 C-1.13483673 10.85057098 -1.13686096 9.77145447 -1.13894653 8.65963745 C-1.13579437 7.66835846 -1.13264221 6.67707947 -1.12939453 5.65576172 C-1.12859894 4.77878632 -1.12780334 3.90181091 -1.12698364 2.9982605 C-1 1 -1 1 0 0 Z " fill="#FDFDFD" transform="translate(444,560)"/>
<path d="M0 0 C11.22 0 22.44 0 34 0 C34 1.98 34 3.96 34 6 C33 7 33 7 30.49975586 7.11352539 C29.41573486 7.10828857 28.33171387 7.10305176 27.21484375 7.09765625 C26.04501953 7.09443359 24.87519531 7.09121094 23.66992188 7.08789062 C22.43822266 7.07951172 21.20652344 7.07113281 19.9375 7.0625 C18.08415039 7.05573242 18.08415039 7.05573242 16.19335938 7.04882812 C13.12888587 7.03699618 10.06443707 7.01906008 7 7 C7 14.26 7 21.52 7 29 C9.58134766 28.98259766 9.58134766 28.98259766 12.21484375 28.96484375 C14.45572809 28.95546766 16.69661359 28.94636727 18.9375 28.9375 C20.07380859 28.92912109 21.21011719 28.92074219 22.38085938 28.91210938 C23.46044922 28.90888672 24.54003906 28.90566406 25.65234375 28.90234375 C27.15269165 28.89448853 27.15269165 28.89448853 28.68334961 28.88647461 C31 29 31 29 32 30 C32 31.98 32 33.96 32 36 C24.08 36.33 16.16 36.66 8 37 C7.67 44.59 7.34 52.18 7 60 C16.24 60 25.48 60 35 60 C35 62.31 35 64.62 35 67 C23.45 67 11.9 67 0 67 C0 44.89 0 22.78 0 0 Z " fill="#F9F9F9" transform="translate(425,629)"/>
<path d="M0 0 C0.72058594 -0.01611328 1.44117188 -0.03222656 2.18359375 -0.04882812 C7.33596869 -0.05348669 10.88957529 1.01335399 15.5 3.3125 C15.5 5.6225 15.5 7.9325 15.5 10.3125 C14.324375 9.9825 13.14875 9.6525 11.9375 9.3125 C3.44447951 7.45801135 -7.15628663 6.22855522 -14.859375 10.984375 C-21.78061729 16.58728543 -25.2787294 23.13751765 -26.375 32 C-26.85902478 40.40729998 -25.66528373 48.20346802 -20.25 54.875 C-16.26066797 59.29176046 -11.49246286 61.10721595 -5.6328125 61.7109375 C-4.29690467 61.72278299 -2.96068649 61.71454862 -1.625 61.6875 C-0.92826172 61.68169922 -0.23152344 61.67589844 0.48632812 61.66992188 C6.03869588 61.53046706 10.426725 60.48676072 15.5 58.3125 C15.5 60.6225 15.5 62.9325 15.5 65.3125 C6.20283691 70.17238071 -5.29590936 71.22549546 -15.5 68.1875 C-23.2124798 65.02302833 -29.11355664 59.98330731 -32.5 52.3125 C-36.34022799 40.8227856 -36.95353152 29.33427415 -31.75 18.125 C-27.25626305 9.93053851 -21.15669185 4.27348651 -12.27734375 1.1953125 C-8.07685202 0.21360502 -4.29179183 -0.01919406 0 0 Z " fill="#F6F6F6" transform="translate(310.5,627.6875)"/>
<path d="M0 0 C0.72058594 -0.01611328 1.44117188 -0.03222656 2.18359375 -0.04882812 C7.33596869 -0.05348669 10.88957529 1.01335399 15.5 3.3125 C15.5 5.6225 15.5 7.9325 15.5 10.3125 C14.324375 9.9825 13.14875 9.6525 11.9375 9.3125 C3.44447951 7.45801135 -7.15628663 6.22855522 -14.859375 10.984375 C-21.78061729 16.58728543 -25.2787294 23.13751765 -26.375 32 C-26.85902478 40.40729998 -25.66528373 48.20346802 -20.25 54.875 C-16.26066797 59.29176046 -11.49246286 61.10721595 -5.6328125 61.7109375 C-4.29690467 61.72278299 -2.96068649 61.71454862 -1.625 61.6875 C-0.92826172 61.68169922 -0.23152344 61.67589844 0.48632812 61.66992188 C6.03869588 61.53046706 10.426725 60.48676072 15.5 58.3125 C15.5 60.6225 15.5 62.9325 15.5 65.3125 C6.51587962 70.11795974 -3.77873488 70.81518868 -13.71484375 68.59375 C-22.67041391 65.54713628 -28.25202304 60.82384515 -32.5 52.3125 C-36.44663852 41.96666902 -36.514876 30.49161336 -32.68359375 20.09765625 C-29.052133 12.1813757 -23.42623202 6.0318391 -15.5 2.3125 C-10.20818248 0.47800326 -5.5294714 -0.0247293 0 0 Z " fill="#F6F6F6" transform="translate(253.5,627.6875)"/>
<path d="M0 0 C0.72058594 -0.01611328 1.44117188 -0.03222656 2.18359375 -0.04882812 C7.33596869 -0.05348669 10.88957529 1.01335399 15.5 3.3125 C15.5 5.6225 15.5 7.9325 15.5 10.3125 C14.324375 9.9825 13.14875 9.6525 11.9375 9.3125 C3.44447951 7.45801135 -7.15628663 6.22855522 -14.859375 10.984375 C-21.35646042 16.24392034 -25.47625974 22.91782987 -26.5 31.3125 C-27.08752955 39.83167843 -25.77909395 48.05333796 -20.25 54.8125 C-16.25707637 59.2997856 -11.51258404 61.10701094 -5.59765625 61.7109375 C-4.25263353 61.72277054 -2.90730222 61.71457655 -1.5625 61.6875 C-0.86318359 61.68169922 -0.16386719 61.67589844 0.55664062 61.66992188 C5.83351362 61.53713942 9.80939621 60.6578019 14.5 58.3125 C15.731394 60.77528801 15.57159196 62.5920055 15.5 65.3125 C6.34500599 70.09806505 -3.68553012 70.8034185 -13.78515625 68.59375 C-22.69793768 65.55335138 -28.27437894 60.77905235 -32.5 52.3125 C-36.44663852 41.96666902 -36.514876 30.49161336 -32.68359375 20.09765625 C-29.052133 12.1813757 -23.42623202 6.0318391 -15.5 2.3125 C-10.20818248 0.47800326 -5.5294714 -0.0247293 0 0 Z " fill="#F7F7F7" transform="translate(744.5,627.6875)"/>
<path d="M0 0 C5.61 0 11.22 0 17 0 C17 17.82 17 35.64 17 54 C11.39 54 5.78 54 0 54 C0 36.18 0 18.36 0 0 Z " fill="#FBFBFB" transform="translate(489,560)"/>
<path d="M0 0 C5.61 0 11.22 0 17 0 C17.02464032 7.52970132 17.04283141 15.05937939 17.05493164 22.58911133 C17.0599737 25.15291757 17.06680714 27.71672091 17.07543945 30.28051758 C17.08751064 33.95655021 17.09322942 37.63254498 17.09765625 41.30859375 C17.10281754 42.46274277 17.10797882 43.61689178 17.11329651 44.80601501 C17.11340981 46.3975515 17.11340981 46.3975515 17.11352539 48.02124023 C17.115746 48.96055893 17.11796661 49.89987762 17.12025452 50.86766052 C17 53 17 53 16 54 C10.72 54 5.44 54 0 54 C0 36.18 0 18.36 0 0 Z " fill="#F9F9F9" transform="translate(362,560)"/>
<path d="M0 0 C15.51 0 31.02 0 47 0 C47 2.31 47 4.62 47 7 C40.4 7 33.8 7 27 7 C27 26.8 27 46.6 27 67 C24.69 67 22.38 67 20 67 C20 47.2 20 27.4 20 7 C13.4 7 6.8 7 0 7 C0 4.69 0 2.38 0 0 Z " fill="#FCFCFC" transform="translate(533,629)"/>
<path d="M0 0 C2.64 0 5.28 0 8 0 C8 19.8 8 39.6 8 60 C16.91 60 25.82 60 35 60 C35 62.31 35 64.62 35 67 C23.45 67 11.9 67 0 67 C0 44.89 0 22.78 0 0 Z " fill="#F6F6F6" transform="translate(647,629)"/>
<path d="M0 0 C6.93 0 13.86 0 21 0 C21 1.98 21 3.96 21 6 C19.02 6.33 17.04 6.66 15 7 C15 24.49 15 41.98 15 60 C16.98 60.33 18.96 60.66 21 61 C21 62.98 21 64.96 21 67 C14.07 67 7.14 67 0 67 C0 65.02 0 63.04 0 61 C2.97 60.505 2.97 60.505 6 60 C6 42.51 6 25.02 6 7 C3.03 6.505 3.03 6.505 0 6 C0 4.02 0 2.04 0 0 Z " fill="#FCFCFC" transform="translate(330,629)"/>
<path d="M0 0 C1.1446875 0.3403125 1.1446875 0.3403125 2.3125 0.6875 C2.90982819 3.45014289 3.3125 5.84782769 3.3125 8.6875 C3.9725 8.6875 4.6325 8.6875 5.3125 8.6875 C6.82449628 6.8947358 6.82449628 6.8947358 8.3125 4.6875 C9.875 2.4375 9.875 2.4375 11.3125 0.6875 C11.9725 0.6875 12.6325 0.6875 13.3125 0.6875 C13.3125 3.9875 13.3125 7.2875 13.3125 10.6875 C13.9725 11.0175 14.6325 11.3475 15.3125 11.6875 C14.6525 11.6875 13.9925 11.6875 13.3125 11.6875 C13.3125 13.0075 13.3125 14.3275 13.3125 15.6875 C12.6525 15.6875 11.9925 15.6875 11.3125 15.6875 C11.3125 14.3675 11.3125 13.0475 11.3125 11.6875 C8.6725 11.6875 6.0325 11.6875 3.3125 11.6875 C2.6525 13.0075 1.9925 14.3275 1.3125 15.6875 C-4.5625 14.8125 -4.5625 14.8125 -5.6875 13.6875 C-5.92005814 9.15261628 -5.92005814 9.15261628 -4.6875 6.6875 C-4.89375 6.048125 -5.1 5.40875 -5.3125 4.75 C-5.6875 2.6875 -5.6875 2.6875 -4.5625 0.875 C-2.6875 -0.3125 -2.6875 -0.3125 0 0 Z M-2.6875 1.6875 C-3.0175 3.0075 -3.3475 4.3275 -3.6875 5.6875 C-2.3675 6.0175 -1.0475 6.3475 0.3125 6.6875 C0.6425 5.3675 0.9725 4.0475 1.3125 2.6875 C-0.0075 2.3575 -1.3275 2.0275 -2.6875 1.6875 Z M10.3125 3.6875 C8.9925 5.9975 7.6725 8.3075 6.3125 10.6875 C7.9625 10.6875 9.6125 10.6875 11.3125 10.6875 C11.3125 8.3775 11.3125 6.0675 11.3125 3.6875 C10.9825 3.6875 10.6525 3.6875 10.3125 3.6875 Z M-2.6875 7.6875 C-3.3475 9.0075 -4.0075 10.3275 -4.6875 11.6875 C-3.6975 12.6775 -2.7075 13.6675 -1.6875 14.6875 C-0.3675 14.0275 0.9525 13.3675 2.3125 12.6875 C1.9825 11.3675 1.6525 10.0475 1.3125 8.6875 C-0.0075 8.3575 -1.3275 8.0275 -2.6875 7.6875 Z " fill="#E8E8E8" transform="translate(782.6875,706.3125)"/>
<path d="M0 0 C2 2 2 2 2.25 5 C2 8 2 8 0 10 C-3.625 9.625 -3.625 9.625 -7 9 C-8.33157895 3.55263158 -8.33157895 3.55263158 -6.875 1.125 C-4.40522151 -0.3568671 -2.83386167 -0.3633156 0 0 Z " fill="#F7F6F7" transform="translate(775,687)"/>
<path d="M0 0 C2.475 0.99 2.475 0.99 5 2 C6.45295405 10.03501094 6.45295405 10.03501094 4.5625 14.0625 C4.046875 14.701875 3.53125 15.34125 3 16 C0.625 15.6875 0.625 15.6875 -2 15 C-4.44031962 11.33952058 -4.73696072 8.25894744 -4 4 C-2 1.5 -2 1.5 0 0 Z M-1 2 C-2.25949049 3.03406673 -2.25949049 3.03406673 -2.09765625 5.28515625 C-2.08605469 6.20167969 -2.07445312 7.11820313 -2.0625 8.0625 C-2.05347656 8.98160156 -2.04445313 9.90070312 -2.03515625 10.84765625 C-2.02355469 11.55792969 -2.01195312 12.26820313 -2 13 C-0.02 13.99 -0.02 13.99 2 15 C4.19666303 13.22033317 4.19666303 13.22033317 4.23046875 10.90625 C4.21628906 10.1121875 4.20210937 9.318125 4.1875 8.5 C4.18105469 7.7059375 4.17460938 6.911875 4.16796875 6.09375 C4.12675836 3.94163609 4.12675836 3.94163609 3 2 C1.68 2 0.36 2 -1 2 Z " fill="#EDEDED" transform="translate(803,706)"/>
<path d="M0 0 C2.625 0.75 2.625 0.75 5 2 C6.58873246 5.17746491 6.41026221 8.54012202 6 12 C4.5 14.5 4.5 14.5 3 16 C0.625 15.75 0.625 15.75 -2 15 C-3.98858686 12.02702962 -4.21723484 9.88270192 -3.8125 6.375 C-3.73644531 5.59898437 -3.66039062 4.82296875 -3.58203125 4.0234375 C-3 2 -3 2 0 0 Z M-1 2 C-2.17051429 4.34102859 -2.1992246 5.89352953 -2.25 8.5 C-2.27578125 9.2940625 -2.3015625 10.088125 -2.328125 10.90625 C-2.21984375 11.5971875 -2.1115625 12.288125 -2 13 C-0.515 13.99 -0.515 13.99 1 15 C1.99 14.34 2.98 13.68 4 13 C4.36416047 10.56306689 4.36416047 10.56306689 4.1875 7.875 C4.16042969 6.96492187 4.13335938 6.05484375 4.10546875 5.1171875 C4.07066406 4.41851563 4.03585937 3.71984375 4 3 C2.35 2.67 0.7 2.34 -1 2 Z " fill="#EBEBEB" transform="translate(747,706)"/>
<path d="M0 0 C0.66 0 1.32 0 2 0 C2 3.3 2 6.6 2 10 C2.66 10.33 3.32 10.66 4 11 C3.34 11 2.68 11 2 11 C1.67 12.32 1.34 13.64 1 15 C0.67 13.68 0.34 12.36 0 11 C-2.31 11 -4.62 11 -7 11 C-2.3627685 2.6849642 -2.3627685 2.6849642 0 0 Z M-1 3 C-3.31592022 6.22114157 -3.31592022 6.22114157 -4 10 C-2.68 10 -1.36 10 0 10 C0.33 7.69 0.66 5.38 1 3 C0.34 3 -0.32 3 -1 3 Z " fill="#E9E9E9" transform="translate(738,707)"/>
<path d="M0 0 C2.31 0 4.62 0 7 0 C7 0.33 7 0.66 7 1 C5.35 1.33 3.7 1.66 2 2 C2 2.99 2 3.98 2 5 C2.804375 5.226875 3.60875 5.45375 4.4375 5.6875 C7 7 7 7 8 9.4375 C8 12 8 12 6.875 13.8125 C4.46186517 15.34081872 2.80362763 15.22732116 0 15 C-0.33 14.34 -0.66 13.68 -1 13 C0.98 12.67 2.96 12.34 5 12 C5.33 10.68 5.66 9.36 6 8 C3.03 7.505 3.03 7.505 0 7 C0 4.69 0 2.38 0 0 Z " fill="#ECECEC" transform="translate(767,707)"/>
<path d="M0 0 C2.31 0 4.62 0 7 0 C7 0.33 7 0.66 7 1 C5.02 1 3.04 1 1 1 C1 2.65 1 4.3 1 6 C2.65 6 4.3 6 6 6 C7.1875 8.25 7.1875 8.25 8 11 C6.9375 13.3125 6.9375 13.3125 5 15 C2.3125 15.25 2.3125 15.25 0 15 C-0.33 14.34 -0.66 13.68 -1 13 C0.98 12.67 2.96 12.34 5 12 C5.33 10.68 5.66 9.36 6 8 C3.03 7.505 3.03 7.505 0 7 C0 4.69 0 2.38 0 0 Z " fill="#EFEFEF" transform="translate(756,707)"/>
<path d="M0 0 C0 5.28 0 10.56 0 16 C-0.66 16 -1.32 16 -2 16 C-2.33 12.04 -2.66 8.08 -3 4 C-3.99 3.67 -4.98 3.34 -6 3 C-1.125 0 -1.125 0 0 0 Z " fill="#E5E5E5" transform="translate(817,706)"/>
<path d="M0 0 C0.66 0 1.32 0 2 0 C2 3.3 2 6.6 2 10 C2.66 10.33 3.32 10.66 4 11 C3.34 11 2.68 11 2 11 C2 12.32 2 13.64 2 15 C1.34 15 0.68 15 0 15 C0 13.68 0 12.36 0 11 C-0.99 10.67 -1.98 10.34 -3 10 C-2.01 10 -1.02 10 0 10 C-0.08378906 9.36191406 -0.16757812 8.72382812 -0.25390625 8.06640625 C-0.35574219 7.24011719 -0.45757813 6.41382813 -0.5625 5.5625 C-0.66691406 4.73878906 -0.77132812 3.91507813 -0.87890625 3.06640625 C-0.91886719 2.38449219 -0.95882812 1.70257812 -1 1 C-0.67 0.67 -0.34 0.34 0 0 Z " fill="#EFEFEF" transform="translate(794,707)"/>
<path d="M0 0 C-1.66666667 5 -3.33333333 10 -5 15 C-5.66 15 -6.32 15 -7 15 C-6.03603575 9.79459302 -5.12319499 5.40086567 -2 1 C-4.31 1 -6.62 1 -9 1 C-9 0.67 -9 0.34 -9 0 C-3.375 -1.125 -3.375 -1.125 0 0 Z " fill="#E6E6E6" transform="translate(839,707)"/>
<path d="M0 0 C0.66 0 1.32 0 2 0 C2.57798165 11.02446483 2.57798165 11.02446483 -1 15 C-1.99 15 -2.98 15 -4 15 C-4 14.34 -4 13.68 -4 13 C-3.01 12.67 -2.02 12.34 -1 12 C-0.67 8.04 -0.34 4.08 0 0 Z " fill="#DDDCDD" transform="translate(720,707)"/>
<path d="M0 0 C1.98 0 3.96 0 6 0 C6 0.33 6 0.66 6 1 C4.02 1 2.04 1 0 1 C0 0.67 0 0.34 0 0 Z " fill="#EFEFEF" transform="translate(822,715)"/>
<path d="M0 0 C1.65 0 3.3 0 5 0 C5 0.33 5 0.66 5 1 C3.35 1 1.7 1 0 1 C0 0.67 0 0.34 0 0 Z " fill="#F7F6F7" transform="translate(725,715)"/>
</svg>
